<svg width="176" height="176" viewBox="0 0 176 176" fill="none" xmlns="http://www.w3.org/2000/svg">
<path d="M2.19463 148.429C10.0346 158.498 21.9547 165.295 34.3005 167.955C40.018 169.148 45.768 169.65 51.5777 168.884C57.0364 168.217 62.5655 166.053 67.5295 163.631C69.8935 162.472 72.1531 161.077 74.2976 159.677C77.0398 157.843 79.7821 156.009 82.3047 153.934C87.1142 149.888 90.3865 144.153 92.6219 138.369C94.9888 132.245 96.2198 125.721 96.8693 119.285C97.5513 112.158 97.6736 104.658 96.6219 97.5643C95.4659 90.2351 92.2197 83.1538 86.078 78.7076C80.7158 74.8754 73.8244 74.089 67.9062 77.159C62.5803 79.9106 58.6384 85.1521 56.7595 90.7218C54.7382 96.8622 55.4714 103.363 58.3164 109.155C64.325 121.332 78.1658 129.028 90.9671 131.824C97.5954 133.291 104.739 133.628 111.404 131.863C118.541 129.89 124.403 125.547 128.729 119.515C133.307 113.033 136.32 105.438 139.202 98.1837C142.342 90.3639 145.141 82.4126 147.37 74.319C151.937 58.2523 154.913 41.6488 156.276 24.9694C156.586 20.827 156.776 16.7944 156.856 12.6411C156.915 8.94875 151.154 8.67747 151.095 12.3699C150.322 43.5112 143.442 74.3649 131.014 102.879C128.296 109.102 125.326 115.775 120.368 120.507C116.014 124.69 110.255 126.844 104.346 127.258C98.0917 127.656 91.7927 126.552 86.0034 124.431C80.4392 122.437 74.9183 119.521 70.4886 115.502C66.1687 111.604 62.7042 106.706 61.5929 100.88C60.6632 96.102 62.2954 90.8671 65.1407 86.844C67.9752 83.0514 72.138 80.476 76.7358 80.9235C82.4804 81.5404 86.7515 86.476 88.9377 91.5443C91.7502 98.0277 91.5019 105.753 91.4068 112.677C91.2562 118.328 90.5241 124.067 89.2213 129.664C87.8086 135.14 85.8199 140.589 82.4812 145.282C79.2685 149.749 74.3927 152.753 69.8625 155.773C65.5736 158.573 60.8618 160.545 55.9413 162.046C51.3664 163.562 47.0871 163.707 42.2534 163.364C31.5544 162.514 20.5628 158.07 12.3568 150.871C10.1392 148.919 8.27276 146.868 6.41714 144.587C5.43444 143.386 3.47032 143.409 2.38453 144.397C1.1781 145.495 1.21193 147.228 2.19463 148.429Z" fill="#3A7C5C"/>
<path d="M120.858 61.0613C127.572 48.4445 135.296 36.4526 143.805 24.9595C145.899 22.1713 148.114 19.2733 150.318 16.6058C151.174 15.6068 152.045 14.2622 153.236 13.5099C154.069 12.9718 154.289 13.2131 154.827 14.0467C155.694 15.2423 156.326 16.5423 156.958 17.8422C157.809 19.3835 158.539 21.0345 159.27 22.6855C160.742 25.7571 161.978 28.9331 163.094 32.2188C165.522 39.4925 167.244 47.0794 168.158 54.6282C168.318 56.1369 170.234 57.1509 171.638 56.7551C173.273 56.3702 174.035 54.9049 173.765 53.2756C172.845 45.842 171.228 38.491 168.794 31.3325C167.579 27.6957 166.249 24.0534 164.679 20.6307C163.212 17.4439 161.756 14.0266 159.813 11.1637C157.655 7.94434 154.148 6.39356 150.594 8.30472C147.391 10.1169 145.143 13.7062 142.934 16.489C138.142 22.6143 133.569 28.981 129.337 35.4792C124.606 42.7621 120.101 50.1712 116.045 57.8324C115.288 59.1825 115.552 60.927 116.897 61.7986C118.121 62.78 120.217 62.4168 120.858 61.0613Z" fill="#3A7C5C"/>
</svg>
