<svg width="102" height="95" viewBox="0 0 102 95" fill="none" xmlns="http://www.w3.org/2000/svg">
<g id="Group">
<g id="Group_2">
<g id="Group_3">
<path id="Vector" d="M6.30771 51.7437C32.5637 51.2904 58.7219 50.6923 84.9779 50.239C90.6461 50.2039 89.9617 41.3906 84.3912 41.5704C58.1353 42.0238 31.9771 42.6218 5.72109 43.0752C0.0528941 43.1103 0.639521 51.7788 6.30771 51.7437Z" fill="#EEDDD2"/>
</g>
</g>
<g id="Group_4">
<g id="Group_5">
<path id="Vector_2" d="M46.2939 85.6514C63.4708 74.2566 80.4052 62.8149 97.5821 51.4201C99.8979 49.8554 100.215 46.2683 97.9264 44.4415C86.6293 35.2094 74.3699 27.0493 61.6801 19.8122C56.8178 16.9839 52.992 25.05 57.9012 27.6357C70.0551 34.3916 81.4891 42.2663 92.3481 51.1619C92.4303 48.7874 92.6103 46.5577 92.6925 44.1832C75.5156 55.578 58.5812 67.0197 41.4043 78.4145C36.7727 81.5438 41.6623 88.7807 46.2939 85.6514Z" fill="#EEDDD2"/>
</g>
</g>
</g>
</svg>
