<svg width="168" height="169" viewBox="0 0 168 169" fill="none" xmlns="http://www.w3.org/2000/svg">
<path d="M18.7976 1.78971C9.16313 10.1578 3.01454 22.4248 1.01984 34.8954C0.134807 40.6686 -0.0581353 46.4373 1.01767 52.1976C1.97586 57.6127 4.43353 63.018 7.11809 67.845C8.40195 70.1436 9.91575 72.3253 11.4288 74.3916C13.407 77.0317 15.3851 79.6718 17.5925 82.0796C21.8903 86.6655 27.7924 89.6259 33.6877 91.5482C39.9298 93.5837 46.5104 94.4634 52.9718 94.7672C60.1254 95.0665 67.6211 94.7868 74.648 93.3567C81.9048 91.8097 88.802 88.1888 92.9128 81.8178C96.4523 76.2579 96.8683 69.3343 93.4857 63.5891C90.4528 58.4183 85.0076 54.7627 79.3453 53.1849C73.1055 51.4955 66.653 52.5758 61.0216 55.727C49.1843 62.3793 42.2411 76.6125 40.1341 89.5452C39.0244 96.2426 39.0712 103.394 41.1903 109.955C43.5432 116.976 48.1939 122.597 54.4488 126.594C61.1666 130.817 68.9119 133.42 76.3104 135.909C84.2872 138.625 92.377 140.995 100.578 142.787C116.867 146.487 133.606 148.569 150.334 149.036C154.487 149.124 158.524 149.098 162.676 148.955C166.366 148.816 166.328 143.049 162.638 143.188C131.5 144.084 100.322 138.866 71.1834 127.984C64.8237 125.603 58.0011 122.995 53.0104 118.298C48.6002 114.174 46.1411 108.538 45.4105 102.66C44.6777 96.4363 45.4437 90.0872 47.2507 84.1927C48.9439 78.5295 51.5598 72.8604 55.3359 68.2218C58.9975 63.6993 63.7024 59.9774 69.4605 58.5555C74.182 57.3712 79.4968 58.7206 83.6665 61.3463C87.6055 63.9736 90.4001 67.9925 90.1996 72.6077C89.8913 78.3771 85.1917 82.9064 80.2478 85.361C73.9243 88.5168 66.197 88.6826 59.278 88.9586C53.6269 89.1109 47.8568 88.6873 42.1982 87.6861C36.6542 86.5689 31.1064 84.875 26.2417 81.7924C21.6084 78.8236 18.3478 74.1157 15.0895 69.7538C12.0635 65.6211 9.84177 61.0217 8.07995 56.1886C6.32039 51.7016 5.94651 47.4361 6.03017 42.591C6.30605 31.8618 10.1545 20.6479 16.9039 12.068C18.7343 9.74912 20.6823 7.77547 22.861 5.80031C24.0077 4.75468 23.8795 2.79461 22.8346 1.76331C21.6737 0.617427 19.9443 0.744084 18.7976 1.78971Z" fill="#3A7C5C"/>
<path d="M112.397 115.603C125.355 121.631 137.744 128.702 149.676 136.583C152.572 138.525 155.585 140.581 158.367 142.639C159.41 143.44 160.799 144.238 161.614 145.386C162.196 146.19 161.967 146.422 161.164 147.004C160.016 147.935 158.752 148.635 157.488 149.335C155.994 150.268 154.385 151.086 152.775 151.904C149.787 153.538 146.682 154.943 143.46 156.232C136.327 159.047 128.843 161.173 121.355 162.491C119.857 162.731 118.947 164.698 119.417 166.079C119.889 167.691 121.393 168.373 123.005 168.016C130.379 166.699 137.633 164.691 144.651 161.877C148.217 160.469 151.783 158.946 155.117 157.194C158.22 155.559 161.555 153.923 164.309 151.828C167.409 149.501 168.769 145.916 166.671 142.47C164.689 139.368 160.985 137.316 158.088 135.259C151.714 130.802 145.112 126.577 138.396 122.699C130.871 118.365 123.231 114.263 115.363 110.623C113.975 109.94 112.247 110.297 111.448 111.687C110.534 112.962 111.009 115.035 112.397 115.603Z" fill="#3A7C5C"/>
</svg>
